<svg xmlns="http://www.w3.org/2000/svg" width="300" height="64" viewBox="0 0 300 64" fill="none" role="img" aria-label="BIC Agent Portal">
  <!-- BIC robot+flask mark (from BIC-agent-portal public/favicon.svg). -->
  <g>
    <rect width="64" height="64" rx="14" fill="#164E7A"/>
    <rect x="14" y="12" width="36" height="30" rx="9" fill="#F3F7FA"/>
    <rect x="20" y="20" width="24" height="8" rx="4" fill="#164E7A"/>
    <circle cx="27" cy="24" r="2.4" fill="#F3F7FA"/>
    <circle cx="37" cy="24" r="2.4" fill="#F3F7FA"/>
    <rect x="23" y="33" width="18" height="2.2" rx="1.1" fill="#164E7A" opacity="0.72"/>
    <rect x="22" y="44" width="20" height="10" rx="4" fill="#F3F7FA"/>
    <path d="M29 47.5V50.5L26.8 53.8C26.55 54.18 26.82 54.7 27.27 54.7H36.73C37.18 54.7 37.45 54.18 37.2 53.8L35 50.5V47.5" stroke="#164E7A" stroke-width="1.6" stroke-linecap="round" stroke-linejoin="round"/>
    <path d="M27.8 53.4H36.2L36.7 54.35H27.3L27.8 53.4Z" fill="#18A7B5"/>
  </g>
  <!-- Wordmark. -->
  <text x="82" y="37" font-family="'Segoe UI Variable','Segoe UI','PingFang SC','Microsoft YaHei',Arial,sans-serif" font-size="34" font-weight="800" fill="#164E7A" letter-spacing="1">BIC</text>
  <!-- Cyan accent dot after the wordmark. -->
  <circle cx="152" cy="34" r="3.2" fill="#18A7B5"/>
  <text x="84" y="55" font-family="'Segoe UI Variable','Segoe UI','PingFang SC','Microsoft YaHei',Arial,sans-serif" font-size="12.5" font-weight="500" fill="#5A6972" letter-spacing="0.6">Agent Portal</text>
</svg>
